<mxfile host="65bd71144e">
    <diagram id="wdZhL47jgApj5B_m4iuR" name="Page-1">
        <mxGraphModel dx="1625" dy="451" grid="1" gridSize="10" guides="1" tooltips="1" connect="1" arrows="0" fold="1" page="1" pageScale="1" pageWidth="827" pageHeight="1169" math="0" shadow="0">
            <root>
                <mxCell id="0"/>
                <mxCell id="1" parent="0"/>
                <mxCell id="2" value="" style="whiteSpace=wrap;html=1;" parent="1" vertex="1">
                    <mxGeometry x="280" y="120" width="150" height="290" as="geometry"/>
                </mxCell>
                <mxCell id="3" value="ECStack&lt;br&gt;" style="text;html=1;align=center;verticalAlign=middle;resizable=0;points=[];autosize=1;strokeColor=none;" parent="1" vertex="1">
                    <mxGeometry x="280" y="100" width="60" height="20" as="geometry"/>
                </mxCell>
                <mxCell id="4" value="" style="whiteSpace=wrap;html=1;" parent="1" vertex="1">
                    <mxGeometry x="460" y="120" width="600" height="290" as="geometry"/>
                </mxCell>
                <mxCell id="5" value="堆内存" style="text;html=1;align=center;verticalAlign=middle;resizable=0;points=[];autosize=1;strokeColor=none;" parent="1" vertex="1">
                    <mxGeometry x="460" y="100" width="50" height="20" as="geometry"/>
                </mxCell>
                <mxCell id="6" value="String&lt;br&gt;setTimeout&lt;br&gt;window&lt;br&gt;foo：0xa00&lt;br&gt;fn:0xb00" style="whiteSpace=wrap;html=1;" parent="1" vertex="1">
                    <mxGeometry x="500" y="160" width="120" height="70" as="geometry"/>
                </mxCell>
                <mxCell id="7" value="GO对象" style="text;html=1;align=center;verticalAlign=middle;resizable=0;points=[];autosize=1;strokeColor=none;" parent="1" vertex="1">
                    <mxGeometry x="500" y="140" width="60" height="20" as="geometry"/>
                </mxCell>
                <mxCell id="8" value="" style="whiteSpace=wrap;html=1;" parent="1" vertex="1">
                    <mxGeometry x="294" y="340" width="120" height="60" as="geometry"/>
                </mxCell>
                <mxCell id="9" value="GEC（全局执行上下文）" style="text;html=1;align=center;verticalAlign=middle;resizable=0;points=[];autosize=1;strokeColor=none;" parent="1" vertex="1">
                    <mxGeometry x="280" y="320" width="150" height="20" as="geometry"/>
                </mxCell>
                <mxCell id="10" value="" style="whiteSpace=wrap;html=1;" parent="1" vertex="1">
                    <mxGeometry x="500" y="260" width="120" height="60" as="geometry"/>
                </mxCell>
                <mxCell id="11" value="foo函数对象 0xa00&lt;br&gt;" style="text;html=1;align=center;verticalAlign=middle;resizable=0;points=[];autosize=1;strokeColor=none;" parent="1" vertex="1">
                    <mxGeometry x="490" y="240" width="120" height="20" as="geometry"/>
                </mxCell>
                <mxCell id="12" value="VO:GO" style="whiteSpace=wrap;html=1;" parent="1" vertex="1">
                    <mxGeometry x="309" y="350" width="90" height="20" as="geometry"/>
                </mxCell>
                <mxCell id="13" value="执行代码" style="whiteSpace=wrap;html=1;" parent="1" vertex="1">
                    <mxGeometry x="309" y="370" width="91" height="20" as="geometry"/>
                </mxCell>
                <mxCell id="14" value="" style="whiteSpace=wrap;html=1;" parent="1" vertex="1">
                    <mxGeometry x="295" y="240" width="120" height="80" as="geometry"/>
                </mxCell>
                <mxCell id="15" value="FEC（函数执行上下文）bar" style="text;html=1;align=center;verticalAlign=middle;resizable=0;points=[];autosize=1;strokeColor=none;" parent="1" vertex="1">
                    <mxGeometry x="275" y="220" width="160" height="20" as="geometry"/>
                </mxCell>
                <mxCell id="16" value="name:undefined&lt;br&gt;bar：0xb00" style="whiteSpace=wrap;html=1;" parent="1" vertex="1">
                    <mxGeometry x="650" y="160" width="120" height="60" as="geometry"/>
                </mxCell>
                <mxCell id="17" value="foo AO对象" style="text;html=1;align=center;verticalAlign=middle;resizable=0;points=[];autosize=1;strokeColor=none;" parent="1" vertex="1">
                    <mxGeometry x="650" y="140" width="80" height="20" as="geometry"/>
                </mxCell>
                <mxCell id="18" value="" style="whiteSpace=wrap;html=1;" parent="1" vertex="1">
                    <mxGeometry x="650" y="260" width="120" height="60" as="geometry"/>
                </mxCell>
                <mxCell id="19" value="bar函数对象 0xb00" style="text;html=1;align=center;verticalAlign=middle;resizable=0;points=[];autosize=1;strokeColor=none;" parent="1" vertex="1">
                    <mxGeometry x="650" y="240" width="120" height="20" as="geometry"/>
                </mxCell>
                <mxCell id="26" style="edgeStyle=none;html=1;exitX=1;exitY=0.75;exitDx=0;exitDy=0;" edge="1" parent="1" source="20" target="16">
                    <mxGeometry relative="1" as="geometry"/>
                </mxCell>
                <mxCell id="27" value="父级作用域在定于的时候就确定了" style="edgeLabel;html=1;align=center;verticalAlign=middle;resizable=0;points=[];" vertex="1" connectable="0" parent="26">
                    <mxGeometry x="-0.6299" y="1" relative="1" as="geometry">
                        <mxPoint as="offset"/>
                    </mxGeometry>
                </mxCell>
                <mxCell id="20" value="VO:AO&lt;br&gt;scopeChain" style="whiteSpace=wrap;html=1;" parent="1" vertex="1">
                    <mxGeometry x="309" y="250" width="91" height="40" as="geometry"/>
                </mxCell>
                <mxCell id="22" value="执行代码" style="whiteSpace=wrap;html=1;" parent="1" vertex="1">
                    <mxGeometry x="309" y="290" width="91" height="20" as="geometry"/>
                </mxCell>
                <mxCell id="23" value="" style="shape=image;verticalLabelPosition=bottom;labelBackgroundColor=#ffffff;verticalAlign=top;aspect=fixed;imageAspect=0;image=data:image/png,iVBORw0KGgoAAAANSUhEUgAAAakAAAENCAYAAAC1oZqjAAAgAElEQVR4Ae2dwWscSbav7/+iRd0HlmCkBj15aCwt2rKwhV1j+hov1HckPNh97R4YaIPaHo1hmF40tL0QBg+z0Mb2M7d7Ydwz3H5gGz/coLUxvZmFocHM2n/CeZzMisyIyMisrKrMqqiqbyFSlRkZGXHiF/HFORFV+W8LnSXhDxugATSABtBAjBr4txgLRZnoLGgADaABNKAaAFJ4knjSaAANoIFoNQCkEGe04mQmzUwaDaABIAWkgBQaQANoIFoNACnEGa04mUUzi0YDaABIASkghQbQABqIVgNAalbEufFcjvefy8Gs1Id6RDto4N3g3YxTA+1BarkrW93LsnIi8gZNBvd3crxv/t7Kg48iL3NoAJ8CSK0efpDdp9bfw5eyGKpLW+euHcn3j7+V017+V+6/krvXBmtzvef7H57J7XOD3TfOzs2zaJtZ0EDjkOqsXZat7p5sndmUlfXIIfXRd/IiWu/jnjy5/p3seAPqtIpu8eC97B4+mqB3cFFuPy6B0blv5SgAr1JbD5p+Rtqw1B7Ub4K6nn0QNw4pW8iL0wCpnXuRCmz2ILV9dYIdqsSLMnodyJtSSN3/MlLdTNDGwApNtKCB+YRU4kGZ8J57fHH+RiK0nfNv0xCgBbHs3L4VEjThwsTruSdPsrDhO3myER4wDnb8Z96TB9fNetINeXDdvV4ViszLpPeYPMLPddO+E1PXdKA2ZU/r5pTRsoEZ1OseEw/KDvFl/7+XjbNeOa++ccOBpZ7XI9nO8tHw4RtZ7dM5FEJHdy6WDyJ9IObUF0iV27FPOzh2JC12rKGB+YSUMYzCqmoALrl+sGNBKslLvZ638sKGV0koUQd/Fw5LkgLBB8ygnpRCxs8jh0DyDK+u4XNv5cV1u4wpNMuAW3fQUVhVeVIJzLw1qtC5hbMv5dJTD3Chc6aNk+OXcrff+pGCp18akyeQYnA1WuDYuhaAlDdwO4PuIJCyAdUTrnouzuC+8bwAKOd5juAbhFRJPfTZPnBDEF2ouL+8/DkgNU01pB7Jtgcok69/3+qhByhjMwVVmeeVAOhIrpi0waOCrGTNyk+vXhfhvtYHJ6MBjm5fmjd7AKmmIBXY5OBDyv9cLbbmIFX5XA+cPrSSMrYNqatv5NLB1+FBz4FPOcwWOl/LxsOSsF+DkEp39fUD3nwPKtW6xjbYZzANACkg5Xh38w2pmlvK8aTCEwrf4+QzdmpAA0BqYEjpGk1oTaq4Xbzgwegmi6rnOQ3anCdVFa7zoeR/Hosn1Sn3kBoJ93XqrknV9JBYk2LwdfrqYJ4BntRg9gJSldDQzQg2kNwdcLnYwkApQKqTbkLwN04kENn3dwMWYaj5le/g679xwlkf004WgOZkIJWuWRVCfhrq89eqQueSUF/JWlVvMGF332ADQ65t7sMWk9VA45DKvsyrX+h1/iL6Yq/ZNm5tFzfbvIMDeZbO3Z6dpHXyMkBLYWTy9KGU7uazt5mX7MrTtaDs2e/k2F/38q/baR24qsjcMiVlc/IzAE7LZcqcgrFXVid9PeEWfmUi2zpeXD8qpi2mSQYMf6v60w+VOweTe/psMed7UvXakwEbO41bA41DatwV4Hl0mnoa4Bcn6tkJPWGnuDQApIgtz8/6Qok3NZAXZYUP+e2+uAYz4DKb7QGkgNT8QIq2pq3RwNRpAEgh2qkTLTPm2Zwx0660a0gDQApIASk0gAbQQLQaAFKIM1pxhmZVnGO2jQbmSwNACkgBKTSABtBAtBoAUogzWnEyY56vGTPtTXuHNDB3kPr1+hn59xMrDMzAGQ2gATQwBRoAUlPQSKHZBeeYdaIBNDAPGgBSQIrZJBpAA2ggWg0AKcQZrTjnYZZIHfGG0EC1BoAUkAJSaAANoIFoNdAOpJa7zi+gry1Xk3KcMwk2TsTTFsO1+0m5+uNX8tefvpJv7p+Uhd/+Rr75ST/vyoWygeZPu0l6vSf9+0Ku/rY9O1x43HvO49Oy0Dktt5LntvvM4WzZng0oD7ZtSgPNQyoBVFcWswHjlKx19yQWUAGp6e88BgK3/rSUQ+rH38hapjmrjgnEKgAWumfEc2v3v8ghmkFqvGVoaoAgH0tLI+oCWw5ny8YhtbgeeG/UiU3ZOLMpnQgaGUgNJ5SYOlgKAeOZ9DyVxGsJ1E0hVXatLT32PLcEop2e51cG0bbKQL7Rhq9i6kvTUJbGIRWs9AxDynkp4P47SV8W6L5AMH+brn/+Xfh18tbLDAv5Vb5JODBIdz6R1zduyi83Ppeny0vy4FP9v/f36SeFjry/9Xl+3bovbdeT8nQ3vff11gX52bqe5bt7QfadATK/xzz3562ThecGdePkk9cthZTxTFIIJKE/O30WBjQhvvxYSGtA0jccmIcaK8OGCaQMRJck8fzGDUrbFvw/kt4G0SZp837alC3GAqnF9VkP94Vf3Z4ArA9UkjQlb7zVay92nssL6y27eq7w9uAag9CDTz+Xn3dvSg6IFB6vP+4nqhRydroUZCn0FpZ7sOoBT2HV7xkJ0GxA/tf/kf/4n9eVfxv/ZZVTIZB5Jik4Uq/FSmNs0teTSj0x9/5RzpkQpIFoCqkiGANlNWXmCFTQQKaB1iGlr5PfWFvNHtgUXYfNp61wn74S3rxyPS2bvq7dvE6+akDSdOHXxycA2w9fG7T+Ljx65VHA2LAo6xgff2aBZ0kUUjm0FGKfyQNzr53W/t9c7x33tz5LPLtB6zFw+j6QUq/MBZRpq9NyKwPhktRNN3D5PLtwv7E/R7SQaqBVSCmgttZPRQMobfS2ILWw8VyObY/I/9wbjBRmx/v+XxhEiSd1/kYj9lNPSsN9jvBDkDKekQkJ9o65d1QfUsXQoRVqvHHTAp1XriYH7kpIqReWezyObTrqAZmQXd10LdajSZuQl9sPsEfU9mgNUhriiw1QrUKq43pORc9qSRJAFcJ/1Z6U650NPwjWglQCqADMPI+oriel6Wy4+RDIPg8a7htkUAFSUQ9AmQYGaVPSzlWbtgIpBVRMIT67I7TmSXWWJAnPKYSSjQ++d3RPntieVtbR4oGUCx8LiENCKlmvKmyksPLNbNDiuUpI1Q/jEe5rsY3GoQOeMbVgaxhSq7JyJgSoU7I2F1vQ0w0UD86/Dezacz2tBJzZLj4faOmAMPZw38efyS/eGpXZtWd7RC7MKtakOmlo0M9zoVN300YDA2MfSKVfti2G/C48/spbq9LNFHXSNVBmBtSpHVDtCTH/N9MXGoZU+sXdre6e84sTyee5gFQvpGftxnOF6m9BVzgpvHSNKt9kkW6Y8Net9HMYZu4zfGGYLejpepCBjYLGbAn/xfJ2nPM3ejv1FF66NvXpdrYFPf2sW9hN/r0wYZY2397u56n35hsv/PI29LnwKxP5FvTCRgkFWbb9PE0X3I1XNx2QATJooDENNAyphgaYFhu4zXBfNSzitw3lp43QABqITQNAqkUgxtbYlIcBCA2ggWnTAJACUo255dMmfsrLgI0G4tcAkAJSQAoNoAE0EK0GgBTijFaczHLjn+XSRrRR2xoAUkAKSKEBNIAGotUAkEKc0Yqz7Rka+eMFoIH4NQCkgBSQQgNoAA1EqwEghTijFSez3PhnubQRbdS2BoAUkAJSaAANoIFoNQCkEGe04mx7hkb+eAFoIH4NACkgBaTQABpAA9FqAEghzrA49aWNQ/2gbfwzM2bPtBEamB4NtAOpE5uyYf0Sekzvlmr9B2az12/kv2L+ZGN6BJF13gghtXr4QXaffpBLB1+HwTruCce5b+XohyO54j339J1ncnTn4kBlvHL/lXz/wzO5fW4KteLVP9MQ5wfSAHYLa79xSCWvjO92ZTETaPqOqTX/1eXZ9XDB2mqwdiGlr+LIX7nRVh2GzfdgJ96y1a7T1TfRQErBEobRl3I3AK/SOirsHn8rpyfUJ0rLRXmATAQaaBxSQcGrZzUX75Mqe/vueEEcbIOOvusKSJXZZuDzJV6UyWcgb0rzuv8lA2IEA6JpP45xjFnaDkCqkY7hv8wwD/Ud6+vk9RlJ+OydHNuvkDfn9t9JFhI055J0br5ZGr/M5p793nOvfycH599meZa/RPGdvDh/wxkc3bR9XrLoP9fUNSmfeZljWjcnX9sGfl36fTae1NmXculpGv7TEOD2Va9TeddLw4RX3yQhxCwP676qsKJC6PsqsPSBmDMIAilHg45t+umB6zNvuzFAas7CfZUDcNjT0gHcBZCmeysv7NBhstYVgIaCwn9mDx5unoN6UgrIwPN6g0ICHe+5ZedeXH8rGawTj64Ix9oDk0Lq8I1cevpGVrMB6mvZeBgAVXY9BViypnX4KNip9dr2oQIrz3f18L1snPXgl+R5UW4/fiV3r4WumXMa8uuXppcWSAXbpLYmvHbmPqPB2Ti2Bylr88T8bJwIQyjvNOHrQUjZgOp1wmA6DxT5s4oCHSzcVwWpcD302X4ZE3A5HpaWq/z+qvIn1xLPJwdJnv6RbFuAyc/bdngk2w9fWuul+bUEYCXXinkpgPptckhBFl6zyp+b5H3tqNorYxAGYnOsgfYglRk19aRiAVXrGycqoREenP2BvWwQL6RT76oAAG8AzNqhQU9q43khTJgN5F6ZCmVOyhO2Q5aHVebCORPuC6RxPZ/Uu9IwnvNXAqLEk/JDhoFnpOVpDlLprr7iDsFCvUvLUt7e5IFtZkEDY4CUCkVBZe/4m5x4gFRd21d4UtFDKgVUcU2p2pMqrGuVgqE+pKpDgr22wJPCUyrVWt3+Orvpxgipy7JyYvKGjBFSBzvWxolErGFPo+iVVIAkIPpJhfv8tbEyT7HWrE/DfUFvyAr36eaH4NpTU5CquybVLyTY6w+sSQGpQH+t1R/m4L6GIRUO7S2u78nW+qkohDhZSKU73vJB290Bl4uyLqTSNaDCxolOL18vFKiQc3bz9b54nJfHnkRUA7CQl3YWzc8LdxbBqs8I1y+vv10O738N9z1874HK3zhhAct0YrOLLwi4JRks3Lck7O7z2sXYmWMU41ytvjQlbdUwpFLhJlCyfnEiFkBpw7UCqd5gf2y2gFtHBwoqCi+tAkIHcr03Sets6zbfa8phlqWzBebck25DD4PHzefY35zhlc2tjylLPjipB+imsXcDes8ywHTKaqfP8y3rYMnmBvOLEwY6vTWnQqjO2kqerEklcFJ46RpVvvHC5OmsW2maEphlZeuzxZzvSfVvz8yWtpb5H8h5GmgFUjGLrxVIeUaNuf6UrbnBk1+caM6W6BJblmkASAEYZm7DaqDEmxrIi+o9m9/uY5AuG6Tn/TyQGnaA4j7ghgbQABpoXQNACpG1LrJ5nwlSf7wkNDC8BoAUkAJSaAANoIFoNQCkEGe04mT2OfzsE9thu1nRAJACUkAKDaABNBCtBoAU4oxWnLMyE6QeeDVoYHgNAKkRIcX3roYXHx0X26EBNNBPA0AKSOFJjaiBfp2M6wzEaGB4DQCpEQcoPKnhxUfHxXZoAA300wCQAlJ4UiNqoF8n4zoDMRoYXgNAasQBCk9qePHRcbEdGkAD/TTQLqR6r5CP5a28aoymodJ0fv0abOqu/3FP/vX/bvf+fi9//89xdUrzi+fpm3mLL0AcVzmWZKHkN/5MW154/JX89aev5Jv7J12v9re/kW9+0mu7cmHEyZR51jDHtftfJOX76+PTbvkmWKZh6lHnnmF+d7FOvqQZvr+1Cil9ZcfGmcsCpIZvoNkR96/l7/8YJ6Rymy8evJdJQqr819LTMhoIFCCVQOCkXP1xspBa+NPu3EBqoaNvXT6SKzMI4GkdS9qDVOJFdWVxuQukELwsdOYUUn28qGTg6EHg1p9ysOYDSgSQ6nl0YYiGyjzd5/Cm4mq/liCVvqF3bXlJFoDU0CGSvz00YbL0+M/DTfn7P/bkbx70bh3+3gqp3ZZ/Hv7aeuamHCfhttSLcfJ8uGmly4Xp5qf3bcrxPy7KLe+5C04o77b8qyS/dMDtBym97tfXrkdevnwAr3euvyflhgbtlyI6z/JepKgvWtS8kxcmBl9XX+MNvmrTBFJfyNXfhuqTQ8qEBTU0+NcffyNrXns410vDhJpfGl40eeT3lXhsPUiFIRoqc/Hc/tbn8suNm/LLp5/IwvIF+Vn/T/4+l6c6Tth1ca6n6X7eykOheV4X5Omudf3jz8rzzK6Z534mD+xn2v/XmVgk6S/K7cev5PsfXsnRnYtuHez8+H8k27QDqeWubJ3ZlI42DpAaqoEUJi5sliQFjAup5JwHh/C538s//2HnmULh+I/uAJEAysmvBzkPUkm6GufywacKUuGyhOqR5+eWu+p8JaQS8LyXjbNWfqXn8jf6LnTSV9brq+wLbwXOBqV0ELt7zco7u2adSyBQAohOCqlbj701KwVbAFSOHZJ8S+Cn137clVs/WvnqueC602m59VNJPqH6lJ1T+Ox+Lj/fsACh8Ni9IPtl9/TOP/i0BziTrgeyFF4ne7Dq5evn6X/WPJL7A4BM8teQ3yvp224dIOXozbRNw8cWIHVK1rqXZeVErxMCqcEh9ce9AqCCYvjPi/JPByj5wPe3h+76jw74PvQWAvcrfArpCqIr8aw6S6L3++BLy14BqYr63jrcG3mzRRWkVg89QJm6Kqgs7yicLgVVOaR0sHsmt8/l7RJsR/PM4DH1fEKhNl3LCp23n6Fpgh5QArCvwteC5RilDmYsUA/KAlTvOQ8+LYOF/cxP5LUNM4WMemVZHjfl9ccmvZ1WAVZ8ZnrfJ/LaysPktdCDD96Rsedkj41DqrN2WbbWT2XiwZMavIHLB3o3r8p03sDvQyvpkAFI6fnEg8l25AXg5uWdd+4lCYEvvV4OKa1HvgPQDfnp+TD0XFs4ZfAG2XJIPZLthy9l0Uuf5qUAMp5TeTrNu31IlXhZvudjNjgkob5eSO+nEhAlnlQxZFhlx5GveWAx+RUhZTwjE5rrHYeC1CfyOgstevnpeTvPTAephwSk6vcx05ZtHBuHlO7o2+oG/mxwZWIYvxGa3jLedH7ayJXwsWxXmc4DySCQ8oVWCLt5eTvpS8BXtXFC69HfexteK3MBqQRQRZhVelL9woWW1pw2HvZ8LUilgLLXoNJn295RL1xneUEaDgx7UgqpMk+qTFM1w7TD2oH7ciemhi0ah1RBzIT7BmqQxH66IaEkjOfYtxQI6g354T73c5JPxf3Oczq6LmWvhTUc7tNyeOtb7vPLBpN658shtSThMN6SLDQS7mtisEvDfaGQnR3uu/A4vGY0PkilddVNBKVrOXUgVZJmoTMspJbEBVgdzdQM0yYbLHTjBFvWm+yvfl5AqgbJfaPZn9vwpFKvIxBm08HcC3+pl1MIhwUg50MrqUMBUgqjAMwC+QW9n0rYlIf7tCyaXxHM4Q0VSdmvHSW7qr6vseZTBakERoWQn4b6vLUqhZaXbvXwg1RvnKi5u69SgwqpL+SbH72wnbdxwgZWqs8UbroTMAS4habDfWbAfvytnC6rTwmA3HBfwPMxO/Ps0JyXlwsiD2gKuBuBda/Qhgote83dffr9tzr6S9ujDhxJE7JVe5Dq/dpEFvoj3DewR+WvDf3L8WaMoNOB3FnTcbwSswXdbGNPt3UnUDDrTll6N22WZ3bdPDM99i9fSX695/pwdcpUkiYTcR9IKUCSreFPA0drQ0SS39U3hbTBdSYvnX5BuHpNqv6Al9XLHuB7mxvSX5zIoVN3C7rCSeHl/JpFlme+ZpXkVwYzuzxV//fao8yLyraNJ+tDJvzmrhdl4ToFkL2OlMDJpP1M/q/Zzm7llez+u3FT0jBhnjbfZm7OWetSNvSsutX7nlS6A5B1K3dMCOrYsu0w19uD1IgFG6Yyde5p2vNpOr86dSBN+x2jro37QqqzJP1+caLus2JOl3gVVV5UpONB0aYKnxrhO4XyTNQ3nr5UbIu0bEBqxM4DpOIXeZn4Rz+vXwI2OwAr7FAzfDR6eSrKMKLOq8uWehVlXlT1vZMqc/i59byo8L3TVM9pKiuQGrHzAql56rD+L1N461YjammaBg7KOk+6n2xdgdSIAwuQmqyAGSyxPxqYbQ0AKSA18IYOBoXZHhRoX9o3Jg0AKSAFpEbUQEwdmrIAmFnTAJAacYAi3MegMGuDAvVB0zFpAEgBKTypETUQU4emLABm1jQApBiggBQaQANoIFoNACnEGa04Z21GSH3wctDA4BoAUkAKSKEBNIAGotUAkEKc0YqTWefgs05shs1mTQNACkgBKTSABtBAtBpoAVL6+vjiSw831lajMEJ7W8Z779PhRyejaOdZm01SHzykedVAO5A6symdSGcm7UEq7UT6A5Wz8EOb89ohqDcwQANxaQBINQxTfkU5LoEz4NAeaGC6NQCkgBThuYY1wKA43YMi7RdX+7UDKX9NKqLw3zjCfbytMy6RM+jQHmhgejXQAqQCxljuylYkoGobUgvXjgRIBTSAt4LHigbQwBAaGA+kOkuyuH5ZVk5MfvBqHVK914XzaunJtzWzZ9oADUy/BoDUEGSvFD6eFLPFpjVFfmhqjjUwJkitysqZrixGYOi2PSl2903/zK1yEhKBhikfGpsnDTQMKYXRnvhf3F1c35Ot9VNRzIaAFB18njo4dUXv066BhiGVCiKBkrXDz4fWJI0GpOi0k9Qfz0Z/aGAwDbQCqZgboW1IXbn/il+cICQWRdQg5n5I2QYbqOfZXkCqsQGV3+6b545E3Rl00UA7GgBSjUGqnQZC+NgVDaCBedYAkAJShKbQABpAA9FqAEghzmjFOc+zR+qO94QGUg0AKSAFpNAAGkAD0WoASCHOaMXJTBJvAg2gASAFpIAUGkADaCBaDQApxBmtOJlFM4tGA2gASAEpIIUG0AAaiFYDQApxRitOZtHMotEAGgBSQApIoQE0gAai1QCQQpzRipNZNLNoNIAG2oXUiU3ZsH4NfW158gZv+wdm6VSmjR/J9tMPsvv0vWycNec4og80gAYG00BrkEpf1xHHiw5tUUwPpO7Jk+vfyc6Ue3qrh0DK1h//DzZAYS/s1Q6klruFFx/GIjYgNV7RA6nx2juWfkY5aPemNNACpFZlZX1TOpF6AK1A6qPv5MX+Oznefycvzt+Qhc49edL7fLxzz13z2XiepNO06d9zOXBsdUMeXDfX/ONbefCREb95RujcO3Gfa+XZ884Odkze5vlufvl1Py/z/HpHA6nFg/eym4T/NAT4RladOi/JwtmXcim7rmk+yKWDr13b6T1X32T5bF917wum95/D56JNsQk2iVgDzUNK16H0VfHOelQ8Yb9WINVr4J3zb+XFznN5sZ+DQ8892egN6AooP4SXAC5Pn88+6oX7DnYC92qePhy1jHr++nN5ct3AtHfOSqv5vbCvd1LAZXUYUMwKqe3D97J7+CgfCBIgBUDl5b16+MG9z7qu17YPFVh5PgaIuQ3rgZT02AkNxKuBliDVlbXuZVk50at4Aqw4QNU2pI73jWfiN7oO9mXX7skTCxRph2kJUvvvcmhag77ppOpBpd6gVf4y6AXuN/mYYylo1COywRXM65FsP3wpi4FrSb4l18yzOVptGLAh9sE+06CB5iG13JWt7p4UdvKd2JSVGd/dl3hSSbgvJH4TTjNhNu/oe1gaMiycK+Y7uCdVvRljoPxqDHzl3o0PoK9l42Ea5svDgh9ktwREiSel4b4aZSANdkID06uB5iFV5jVFspmibU+q4IVkg6hCqsyTCgloniCVAqq4puSDLLcTkMptwQCMLWZZA81DqrMqK2cCntRyt+hdZQP4+EQ2OUgtiYbS6q/tjAApXfsqhA/NmtS4PamKDRAm3KdrVOZ/RxNAapYHH+o2vnFvmm3dAqSWepsmrDWoMu/KGZDG02CThFS66y+w0SG0oSLZsOCm1XCiv+aVnLOAlKYp2ZGXbJwYN6Tey6WHHqgKGyf0i7/5BoikQ5ldfIT7CGlOYJyY5kF91sreDqRUVL21KV2f2rI3UUxYcG1AKgNDtq3crDeFwnuBtamytSeFip1nMJ21vVzTKrDMfSa9+Wzn1fs/9+zccpmwpVM3k1+tNnR/cSLZ6JBtMfeApPn5W9ATOJk88vRuPtYaVgnMZq3DUp/xTGaxczx2bg9StQay8RuiDUgh6PG3IzbH5mhgPjQApCKFKR1wPjog7Uw7o4FqDQApIMWaBxpAA2ggWg0AKcQZrTiZYVbPMLEP9pkHDQApIAWk0AAaQAPRagBIIc5oxTkPs0TqiDeEBqo1AKSAFJBCA2gADUSrASCFOKMVJzPM6hkm9sE+86CBuYPUPDQqdWTwQgNoYFY0AKTwpPCk0AAaQAPRagBIIc5oxTkrM0HqgVeDBobXAJACUkAKDaABNBCtBoAU4oxWnMw+h599YjtsNysaaBhS6buk0l8+118/t/7WT0U2GH4pd394Jd/f/zKyctG5ZqVzUQ+0jAZG10ALkLLeI2W8FH2fVHSQSo135f4zuX1udEMiRmyIBtAAGmheAw1DKlzAztrlKN7KGxLQlfuv5O61cLlD6TmHrdAAGkAD49PAGCClIcCAd2W8rAkfgdT4xEbHxtZoAA0MqoH2IRVxqE+NBaToNIN2GtKjGTQwPg20DikN9W2srUa7OeH0nWeE+ybszdLhx9fhsTW2njYNtAwpDfVdlpUTMQvjotx+zC6/aRMu5Y25T1E29NmcBlqG1ClZO7MpnYhn6nhSzYmJjokt0QAaaFoD7UJquRt1qE+NyZoUnarpTkV+aAoNNKeBViG1uB57qA9I0Zma60zYEluigeY10CKk4g/1qaDwpJoXFR0Vm6IBNNCUBlqE1DQ0km6a4BcnmhIT+UyD5ikjOp0uDcwxpPjtPjrrdHVW2ov2mkcNzDGkEPw8Cp46o3s0MF0aAFIRb4+nM01XZ6K9aC800LwGgBSQivbXQOjwzXd4bIpNp00DQApIASk0gLi8hbEAAA5ASURBVAbQQLQaAFKIM1pxTtuMj/LipaCB5jUApIAUkEIDaAANRKsBIIU4oxUns9LmZ6XYFJtOmwaAFJACUmgADaCBaDUApBBntOKcthkf5cVLQQPNawBIASkghQbQABqIVgNACnFGK05mpc3PSrEpNp02DbQDqRObstHdk63e39oywpg2YVBeNIsG0EAMGmgBUqdkrduVxcxDmYZXyCPGGMRIGdAhGkADvgYah1Rn7bIUPCf1rNZPEVbKwI0QfSHyGU2gATQQ0gCQAhxMHtAAGkAD0WqgcUgtdIpv5O2sdWXlBLOE0CyBc+gCDaABNFCugRYgtSQLy91s00SyeYJQX7SzFDpHeefANtgGDUxeA81DStefzmxKx3Kfg+tU1nWEMHkh0Aa0ARpAAzFqoHFIBYHExgk8KSYlaAANoIEhNNACpELrT6dkjZAfAh1CoDHO7CgTHgcaGJ8GGofUQsBrCnpXDFhACw2gATSABvpooHlIdZZEoWR+bYKNE+ObcTC7w9ZoAA3MmgZagdSsGYn60PHRABpAA5PRAJDq42oizMkIE7tjdzSABlQDQApIERNHA2gADUSrASCFOKMVJzNpZtJoAA0AKSAFpNAAGkAD0WoASCHOaMXJLJpZNBpAA0AKSAEpNIAG0EC0GgBSiDNacTKLZhaNBtAAkAJSQAoNoAE0EK0GgBTijFaczKKZRaMBNACkgBSQQgNoAA1EqwEghTijFSezaGbRaAANACkgBaTQABpAA9FqoCVInZK17l72S+gba6vRGiD+mdrXsvHwg+w+tf4OH43FnquH1jP1+Q9fyuI4O/O1I/n+8bdy2nvmlfuv5O41Zpjxa5c2oo1G10ALkFqVlTN7YoNpcX1P1pZHL+w8NriC4tLB12OBkm3fxYP3sjsmGNrPzf+/KLcfl8Do3LdyFIBXfi9awxZoYFY00DykAi89XOisysr6pnS8GfGsGLHNeqwevpeNs+PvcAqp7avjf25myxIvylzHm5pg29CPxz5pNLqfx2PzkFruOl6UMeri+mVZOTH5jnWw806O9/O/JxtLsvDRd/LCOnd8/TvZ0Y7on99/Jy/O3ygK1EqXXr8nT0x+O/eK6Wt08kKoLQv3vZHV5P5Hsp2cSyHmpB/BA0o8qOxZdrgvAMurb+qFIeums+yiEDq6c7Hcdn0gZnTHcfJ9jjagDUbRQPOQCnpSSxJVyE+hYkBkDYwKsCCEvDTHJeDZOf9WXuw8lxf7b+XBR6kw9VwCQiuPQRqsnyel1y89tEOC6RpW7gXtyf/+79fyH/9T8fffD+R/eeXr50klMPPWqEY559rkS7n7wzO5fa6ic2vIr18ar07uMyry5r7yyQG2wTZj1kDzkNLQnrMmlW+iiGdd6oY8uP7Og4d6P8/loG8D3JMnAcDpAKhAOq6VR/0Bsj+kbED18j37Ui6N4E1pXaoh9Ui2PUAZALj31U3n2SMB0JFcqWwLBVnJmlXlfd6zSMugiwai1kALkNJBIAXVVm+Hn8Kps3Y5qs0TCVAsj8j/nA66Kczs8GDyfwWk+nliZjCve+wPqUAYrm1IXX1TvpnDfnbddP4gAaSiHjTqapd0TIia0EBLkCo2TixrUrnRbM8p5Fml54rQqfakiumLtsjL0P/a6JBqIdxXFz510w0NqT4hQT9fPgM/NDB1GhgPpErWqQYZrNtIm61BbTyXbLOEEbGuW1meVv78aYNUfxDmdcvTumG7/Hyatm4Yr246P/+6a1L9QoJ+vnwOtTXn0EXMGmgfUgqobne8XwI1oOl37G2geBDcMGF7Wj0RK8x01968h/t6a1aF729pqM9bq1LY1UnndxJ29zFw+prg83xqonlIJVDKf21iK1ZAJQAza04lGyasreU5nMz28vyedMNEvq09X8PK0wzWwQK/MmG2hWcQMFvQ023iBgQKhezXKbK09cXtbGU3z0yOZut7nlcxbTGN1rtuOsdGfbaY8z2pvB0cu/WbmHF96sJd896+zUOKTkAnaEQD/OLEvA9O1J+JiGoASDUyoCKmVgaUEm8KLwq9taI3xoIoJ9hACmFGKUwGIUCEBtCAagBIASkghQbQABqIVgNACnFGK05m0syk0QAaAFJACkihATSABqLVAJBCnNGKk1k0s2g0gAaAFJACUmgADaCBaDUApBBntOJkFs0sGg2gASAFpIAUGkADaCBaDQApxBmtOJlFM4tGA2gASAEpIIUG0AAaiFYDQCoT57qc3/+znD/Zb+ZSN12/fLjOLBkNoAE00E8Dg0NquStb3cuycqLKuMU38/YryMSvn7spd65f7D+bqJsug1+VnWK+pjC+J3f+Yv3Vsc9I9XafuXtuOPtsXE/L/Ied9f7t2Svvr3b+nNe1qp7a/sYm+7+TX41U3+HqN/G+Qp1r64q2Gl3jtSGlr39PXgd/ZlNW1qshtbi+Z70qXoFVnX7yDVnXO6qbbvSGmbRNdKAfZJBvorz6zBxMI9r63M365fcmHgqsYN1P/k7+YIPJu68JG5DH9Pcd2rDZNqwNKdvwla+CP7Epa2ur3kzjlKytn/LONVsRu3wD/6+DT9Xs2cwc66Yz6af4uHG9TuizwTY8+TvZLXg+F2W3TruE7FwbUuty/nrRI9q4flM2vHxD5361c7NGiLhBO3llGljr3B/vOETbBNumcUipx7W27HdK9aYifTtvZ0ncGbxf9vxz3XShgcMJJ/3FeCkXZdeEjpKjGRj98/dKQpFWeKw3w9cypuEok1de/lC5/HP5/SYfczT55c9Ur8epl+1lDNjhNJ/cizJl1meZ5+o52y7mfOjckiwYSOnEwrJx4RklE49ieS7Kbqh+5jkD1te3O59Nm3NEC64GgJQOUqHBxx906qbz73M+64BqBte8IZKBvo/HkKQpK2dStpuyu2/gtyQLJYNv3Q7Qz5PS8vxh/88OPBVwdpisHHg++FLYFQDS8SGlNksh6aTVsJtvG4XH9ZvyB8fegXtL7ASkcn3W1QzpsFkbGph7SOlA6gx4DlRy0dVN16+R/IE8HXTrhNZCA3avfDrQ/qVePfqVz1yvA6niRpMSb6PEpuZZeixCQetWVmcLNiFA6fP0vAMo05beRAFIBUMsdtvwv9EOx0loYb4hpQOUPwMPDah104Xu9c/5g6r/uZc+7IUUvbBENE2WL3t+NTjDUBkXpAzA7hU9KGPvijCcA2AgBaSMZjhGqYW5hlRd76huunqzDPUCcgAUPat0jazopZR5Fb3QXh3YDtAJnYE8cF8dSIVBa0J9esyhG86vos4J3P9c7kECqSgHnHp9BI8FO+UaaBxSC6HdfSc2ZSO23X11vY+66QIDeZnQdEBOIKR5WwN1mr7MG6kYsFsoYxOQKqt/8Hxod5/WK7RW53ifGr7LoZ/l7aTJBZ9uvsjhmIQUC7v7wrYO7e7rZ6esPAPog3vs9uL/eddD85DqLIm/Rd3/HIPRwzP3Yoeom26wOqXrIucNrJwBTAdIb9BNYOZ6Hs7zZgFSyS5Lt95BAAThEwCVelK6scPxMNW2gbU73+vyP5v28aHpfzbpOOLFoYHGNFAbUtmXebt76Zd6s2Poi7qnZC27vicbhe9NFWHgDLqtN7C3eF76vLrpBq9PGgpzB+XcBvpcPyyWDrB3bK8hg5edNv2/zmaQ/Hmm/OYZxfzywd5LYzwdhUdWZttTMXnXObr1tncKJmUNPsO9R+ttwozJ/c49AUD12t7ck9TBAZtb7sQLHrmebp7FduA6NkEDRgO1IWVumIWjDjSFATAAqrrpZsEm1IFBAQ2ggRg1MJeQirEhKBMDBBpAA2igqAEgFfCgEEpRKNgEm6ABNDAJDQApINXYAuckBMwzGTjRwGxrAEgBKSCFBtAAGohWA0AKcUYrTmbIsz1Dpn1p3zoaAFJACkihATSABqLVAJBCnNGKs84sizTMxtHAbGsASAEpIIUG0AAaiFYDQApxRitOZsizPUOmfWnfOhoAUkAKSKEBNIAGotUAkEKc0YqzziyLNMzG0cBsawBIASkghQbQABqIVgODQ2q5K1vd0C+fezSvm27S4rj6RnaffrD+3svGWa8uw5Tx3Ldy9MORXPHuPX3nmRzduRitIJiVNtD2XptjU2yKBobXQG1IZa/qOLMpK+vlkKqbLopGO/tSLj19I6stDCpX7r8qgdGXcjcAryjs0YIdqNfwnRPbYTs0sCS1IWUbq+5LDOums/Me6/8KqcNHzXs1JV6UqRveFIOP0QJHtIAGqjUwn5BKPCg7xJf/f+ng6wRaiwfv0xCgQsxJ3z8cqBD6/v6X5fDrAzFEWy1a7IN90MD8aGA+IWXCWv08Kb3+8L0bEtQ1rIcvZdHkUThelNuPX8nda1Ui0pBfvzRV93ONQQoNoIH50ACQqgr3JR5Ucc1q9bDKm1IAPZPb56oElIKMDRRVNuIagzAaQAOsSVWvSZV4WkCKwYPBAw2ggfFoAE+qnycVuN4UpKpDguMRAB0NO6MBNBCzBoBUAEJZgw3lSdVdk+oXEqTjZO1QWPfDNtgGDcyLBoBU45BaEnb3MYDMywBCPdF62xqoDansS7rdPdly/twv9tZN13bFKvMv/MpEvgV9+2oqumwLevJrFGbzxCPZtn6dwqQtPKvPFnO+J0XHLmgGb7H8KxvYZq5tUxtSdKrBBlZ+cWIwe6Ev7IUG0EBIA0CqrVlaiTeFF0VHDHVEzqELNBDWAJBqC1LkO9chCgac8ICDXbDLoBoAUsAEmKABNIAGotUAkEKc0Ypz0BkX6Zmlo4HZ0wCQAlJACg2gATQQrQaAFOKMVpzMimdvVkyb0qaDagBIASkghQbQABqIVgNACnFGK85BZ1ykZ5aOBmZPA0AKSAEpNIAG0EC0Gvj/pC0ohSYdGkcAAAAASUVORK5CYII=;" vertex="1" parent="1">
                    <mxGeometry x="-180" y="115.5" width="425" height="269" as="geometry"/>
                </mxCell>
                <mxCell id="24" value="name:undefined&lt;br&gt;bar：0xb00" style="whiteSpace=wrap;html=1;" vertex="1" parent="1">
                    <mxGeometry x="780" y="160" width="120" height="60" as="geometry"/>
                </mxCell>
                <mxCell id="25" value="bar AO对象" style="text;html=1;align=center;verticalAlign=middle;resizable=0;points=[];autosize=1;strokeColor=none;" vertex="1" parent="1">
                    <mxGeometry x="780" y="140" width="80" height="20" as="geometry"/>
                </mxCell>
            </root>
        </mxGraphModel>
    </diagram>
</mxfile>